<?xml version="1.0" encoding="UTF-8" standalone="no"?>
<!-- Generator: Adobe Illustrator 19.0.0, SVG Export Plug-In . SVG Version: 6.00 Build 0)  -->

<svg
   version="1.1"
   id="Layer_1"
   x="0px"
   y="0px"
   viewBox="0 0 203 328"
   xml:space="preserve"
   sodipodi:docname="back.svg"
   width="203"
   height="328"
   inkscape:version="1.1 (ce6663b3b7, 2021-05-25)"
   xmlns:inkscape="http://www.inkscape.org/namespaces/inkscape"
   xmlns:sodipodi="http://sodipodi.sourceforge.net/DTD/sodipodi-0.dtd"
   xmlns="http://www.w3.org/2000/svg"
   xmlns:svg="http://www.w3.org/2000/svg"><defs
   id="defs2439" /><sodipodi:namedview
   id="namedview2437"
   pagecolor="#505050"
   bordercolor="#eeeeee"
   borderopacity="1"
   inkscape:pageshadow="0"
   inkscape:pageopacity="0"
   inkscape:pagecheckerboard="0"
   showgrid="false"
   inkscape:zoom="1.0390625"
   inkscape:cx="138.58647"
   inkscape:cy="256.4812"
   inkscape:window-width="1306"
   inkscape:window-height="704"
   inkscape:window-x="1426"
   inkscape:window-y="27"
   inkscape:window-maximized="1"
   inkscape:current-layer="Layer_1" />


<path
   style="fill:#00c2cb;fill-opacity:1"
   d="M 88.348045,154.08995 185.56805,56.869948 c 11.783,-11.781 11.781,-30.884 0,-42.667 v 0 c -11.783,-11.7830002 -30.884,-11.7830002 -42.667,0 L 14.901045,142.20295 c -11.7829999,11.783 -11.7809999,30.884 0,42.667 l 128.000005,128 c 11.783,11.783 30.884,11.783 42.667,0 v 0 c 11.783,-11.781 11.781,-30.884 0,-42.667 l -97.220005,-97.22 c -5.218,-5.217 -5.218,-13.676 0,-18.893 z"
   id="path2402" />
<path
   style="fill:#3dadff;fill-opacity:1"
   d="m 185.56805,270.20495 -97.22,-97.22 c -2.462,-2.462 -3.748,-5.648 -3.886,-8.873 h -78.37 c 0.143,7.528 3.065,15.013 8.809,20.758 l 128,128 c 11.781,11.781 30.885,11.781 42.667,0 v 0 c 11.783,-11.78 11.783,-30.884 0,-42.665 z"
   id="path2404" />
<g
   id="g2406">
</g>
<g
   id="g2408">
</g>
<g
   id="g2410">
</g>
<g
   id="g2412">
</g>
<g
   id="g2414">
</g>
<g
   id="g2416">
</g>
<g
   id="g2418">
</g>
<g
   id="g2420">
</g>
<g
   id="g2422">
</g>
<g
   id="g2424">
</g>
<g
   id="g2426">
</g>
<g
   id="g2428">
</g>
<g
   id="g2430">
</g>
<g
   id="g2432">
</g>
<g
   id="g2434">
</g>
</svg>
