<?xml version="1.0" encoding="UTF-8" standalone="no"?>
<svg
   width="908"
   height="883"
   viewBox="0 0 908 883"
   class="icon"
   version="1.1"
   id="svg4482"
   sodipodi:docname="github.svg"
   inkscape:version="1.1 (ce6663b3b7, 2021-05-25)"
   xmlns:inkscape="http://www.inkscape.org/namespaces/inkscape"
   xmlns:sodipodi="http://sodipodi.sourceforge.net/DTD/sodipodi-0.dtd"
   xmlns="http://www.w3.org/2000/svg"
   xmlns:svg="http://www.w3.org/2000/svg">
  <defs
     id="defs4486" />
  <sodipodi:namedview
     id="namedview4484"
     pagecolor="#505050"
     bordercolor="#eeeeee"
     borderopacity="1"
     inkscape:pageshadow="0"
     inkscape:pageopacity="0"
     inkscape:pagecheckerboard="0"
     showgrid="false"
     inkscape:zoom="0.51953125"
     inkscape:cx="853.65414"
     inkscape:cy="204.99248"
     inkscape:window-width="1306"
     inkscape:window-height="704"
     inkscape:window-x="1426"
     inkscape:window-y="27"
     inkscape:window-maximized="1"
     inkscape:current-layer="svg4482" />
  <path
     d="m 455.07063,6.0600446 c -247.3,-0.1 -447.6000003,200.0999954 -447.6000003,447.1999954 0,195.4 125.3000003,361.5 299.8000003,422.5 23.5,5.9 19.9,-10.8 19.9,-22.2 v -77.5 c -135.7,15.9 -141.2,-73.9 -150.3,-88.9 -18.4,-31.4 -61.9,-39.4 -48.9,-54.4 30.9,-15.9 62.4,4 98.9,57.9 26.4,39.1 77.9,32.5 104,26 5.7,-23.5 17.9,-44.5 34.7,-60.8 -140.6,-25.2 -199.2,-111 -199.2,-213 0,-49.5 16.3,-95 48.3,-131.7 -20.4,-60.5 1.9,-112.3 4.9,-120 58.1,-5.2 118.5,41.6 123.2,45.3 33,-8.9 70.7,-13.6 112.9,-13.6 42.4,0 80.2,4.9 113.5,13.9 11.3,-8.6 67.3,-48.8 121.3,-43.9 2.9,7.7 24.7,58.3 5.5,118 32.4,36.8 48.9,82.7 48.9,132.3 0,102.2 -59,188.1 -200,212.9 a 127.5,127.5 0 0 1 38.1,91 v 112.5 c 0.8,9 0,17.9 15,17.9 177.1,-59.7 304.6,-227 304.6,-424.1 0,-247.2 -200.4,-447.2999954 -447.5,-447.2999954 z"
     id="path4480"
     style="fill:#00c2cb;fill-opacity:1" />
</svg>
