<?xml version="1.0" encoding="UTF-8" standalone="no"?>
<!-- Generator: Adobe Illustrator 18.0.0, SVG Export Plug-In . SVG Version: 6.00 Build 0)  -->

<svg
   version="1.1"
   id="Capa_1"
   x="0px"
   y="0px"
   viewBox="0 0 440 440"
   style="enable-background:new 0 0 440 440;"
   xml:space="preserve"
   sodipodi:docname="lovepill.svg"
   inkscape:version="1.1 (ce6663b3b7, 2021-05-25)"
   xmlns:inkscape="http://www.inkscape.org/namespaces/inkscape"
   xmlns:sodipodi="http://sodipodi.sourceforge.net/DTD/sodipodi-0.dtd"
   xmlns="http://www.w3.org/2000/svg"
   xmlns:svg="http://www.w3.org/2000/svg"><defs
   id="defs1158"><linearGradient
     id="linearGradient3043"
     inkscape:swatch="solid"><stop
       style="stop-color:#000000;stop-opacity:1;"
       offset="0"
       id="stop3041" /></linearGradient></defs><sodipodi:namedview
   id="namedview1156"
   pagecolor="#505050"
   bordercolor="#eeeeee"
   borderopacity="1"
   inkscape:pageshadow="0"
   inkscape:pageopacity="0"
   inkscape:pagecheckerboard="0"
   showgrid="false"
   inkscape:zoom="1.2090909"
   inkscape:cx="93.87218"
   inkscape:cy="88.082707"
   inkscape:window-width="1306"
   inkscape:window-height="704"
   inkscape:window-x="1426"
   inkscape:window-y="27"
   inkscape:window-maximized="1"
   inkscape:current-layer="g1123" />
<g
   id="g1123">
	<path
   d="M336.141,0H103.859c-5.522,0-10,4.477-10,10v60c0,5.523,4.478,10,10,10H111v350c0,5.523,4.478,10,10,10h146.519h0.001H319   c5.522,0,10-4.477,10-10V80h7.141c5.522,0,10-4.477,10-10V10C346.141,4.477,341.663,0,336.141,0z M302.7,60h-16.74V20h16.74V60z    M139,20h16.74v40H139V20z M175.74,20h16.74v40h-16.74V20z M212.48,20h16.74v40h-16.74V20z M249.22,20h16.74v40h-16.74V20z    M113.859,60V20H119v40H113.859z M131,420v-17.338L148.338,420H131z M199.22,414.099c-3.807,3.806-8.867,5.901-14.25,5.901   s-10.443-2.096-14.249-5.901l-35.579-35.579l6.52-6.52h57.059c-3.39,3.929-3.23,9.863,0.498,13.591   c3.806,3.806,5.901,8.866,5.901,14.249C205.12,405.229,203.024,410.293,199.22,414.099z M219.707,420   c3.223-5.536,5.074-11.78,5.368-18.311L243.381,420H219.707z M231.951,380.279c-2.355-2.356-4.052-5.19-5.009-8.279h81.158   c-0.955,3.092-2.649,5.926-5.002,8.279l-35.578,35.578L231.951,380.279z M309,420h-17.338L309,402.662V420z M309,352H131V178h178   V352z M131,142.03c0-5.384,2.096-10.444,5.901-14.25c3.809-3.808,8.87-5.906,14.254-5.906c5.383,0,10.444,2.098,14.253,5.906   c1.876,1.875,4.419,2.929,7.071,2.929c0.001,0,0.003,0,0.004,0c2.653-0.001,5.198-1.057,7.073-2.935   c3.795-3.802,8.854-5.896,14.243-5.896s10.448,2.094,14.249,5.901c3.812,3.812,5.911,8.873,5.911,14.25   c0,5.376-2.1,10.437-5.91,14.249L206.328,158h-67.707l-1.721-1.721C133.096,152.474,131,147.414,131,142.03z M232.432,158   l35.088-35.089L302.617,158H232.432z M309,136.1l-34.41-34.402c-3.906-3.904-10.237-3.904-14.142,0.001l-28.317,28.317   c-1.91-6.111-5.277-11.713-9.934-16.372c-7.574-7.586-17.659-11.765-28.397-11.765c-7.666,0-14.998,2.129-21.322,6.108   c-6.329-3.981-13.663-6.113-21.322-6.113c-7.196,0-14.098,1.889-20.155,5.417V80h178V136.1z M326.141,60h-3.44V20h3.44V60z"
   id="path1119"
   style="fill:#00c2cb;fill-opacity:1" />
	
</g>
<g
   id="g1125">
</g>
<g
   id="g1127">
</g>
<g
   id="g1129">
</g>
<g
   id="g1131">
</g>
<g
   id="g1133">
</g>
<g
   id="g1135">
</g>
<g
   id="g1137">
</g>
<g
   id="g1139">
</g>
<g
   id="g1141">
</g>
<g
   id="g1143">
</g>
<g
   id="g1145">
</g>
<g
   id="g1147">
</g>
<g
   id="g1149">
</g>
<g
   id="g1151">
</g>
<g
   id="g1153">
</g>
<g
   id="g1280"
   transform="matrix(0.17418365,0,0,0.17418365,171.8083,228.67722)"><g
     id="g106">
	<path
   d="M 448.069,9.4942962 C 375.394,-14.067704 297.288,25.253296 272.348,97.392296 247.41,25.177296 169.303,-14.067704 96.628,9.4942962 23.111,33.439296 -16.975,112.54029 6.894,186.36329 c 22.95,70.38 235.773,258.876 263.006,258.876 27.234,0 244.801,-188.267 267.751,-258.876 23.944,-73.976 -16.142,-153.076994 -89.582,-176.8689938 z"
   id="path104"
   style="fill:#dd0772;fill-opacity:1" />
</g><g
     id="g108">
</g><g
     id="g110">
</g><g
     id="g112">
</g><g
     id="g114">
</g><g
     id="g116">
</g><g
     id="g118">
</g><g
     id="g120">
</g><g
     id="g122">
</g><g
     id="g124">
</g><g
     id="g126">
</g><g
     id="g128">
</g><g
     id="g130">
</g><g
     id="g132">
</g><g
     id="g134">
</g><g
     id="g136">
</g></g></svg>
