<?xml version="1.0" encoding="UTF-8" standalone="no"?>
<!-- Generator: Adobe Illustrator 19.0.0, SVG Export Plug-In . SVG Version: 6.00 Build 0)  -->

<svg
   version="1.1"
   id="Layer_1"
   x="0px"
   y="0px"
   viewBox="0 0 512 512"
   style="enable-background:new 0 0 512 512;"
   xml:space="preserve"
   sodipodi:docname="search.svg"
   inkscape:version="1.1 (ce6663b3b7, 2021-05-25)"
   xmlns:inkscape="http://www.inkscape.org/namespaces/inkscape"
   xmlns:sodipodi="http://sodipodi.sourceforge.net/DTD/sodipodi-0.dtd"
   xmlns="http://www.w3.org/2000/svg"
   xmlns:svg="http://www.w3.org/2000/svg"><defs
   id="defs4871" /><sodipodi:namedview
   id="namedview4869"
   pagecolor="#505050"
   bordercolor="#eeeeee"
   borderopacity="1"
   inkscape:pageshadow="0"
   inkscape:pageopacity="0"
   inkscape:pagecheckerboard="0"
   showgrid="false"
   inkscape:zoom="1.0390625"
   inkscape:cx="565.41353"
   inkscape:cy="179.48872"
   inkscape:window-width="1306"
   inkscape:window-height="704"
   inkscape:window-x="1426"
   inkscape:window-y="27"
   inkscape:window-maximized="1"
   inkscape:current-layer="g4836" />
<path
   style="fill:#00c2cb;fill-opacity:1"
   d="m 194.74439,389.35 c 49.876,0 99.736,-18.979 137.706,-56.947 5.734,-5.734 5.734,-15.032 0,-20.767 -5.734,-5.733 -15.032,-5.733 -20.767,0 -64.48,64.482 -169.396,64.482 -233.878,0 -31.708,-31.706 -48.907,-73.866 -48.428,-118.713 0.157,-14.832 2.295,-29.561 6.354,-43.779 2.226,-7.798 -2.292,-15.924 -10.091,-18.149 -7.8,-2.228 -15.9240004,2.292 -18.1490004,10.091 -4.778,16.738 -7.29500001,34.075 -7.48000001,51.526 -0.562,52.808 19.69100041,102.453 57.02800041,139.791 37.961,37.961 87.841,56.947 137.705,56.947 z m 173.141,-130.38 c 6.392,0 12.271,-4.205 14.112,-10.659 19.416,-68.029 0.43,-141.339 -49.548,-191.319 -75.932,-75.929 -199.478,-75.929 -275.41,0 -5.734,5.734 -5.734,15.032 0,20.767 5.734,5.732 15.032,5.732 20.767,0 64.482,-64.482 169.398,-64.482 233.878,0 42.444,42.444 58.567,104.709 42.074,162.493 -2.226,7.798 2.292,15.924 10.091,18.149 1.346,0.385 2.702,0.569 4.036,0.569 z"
   id="path4826" />
<path
   style="fill:#3dadff;fill-opacity:1"
   d="m 279.03339,278.987 c 46.477,-46.477 46.477,-122.1 0,-168.577 -46.477,-46.477 -122.1,-46.477 -168.577,0 -46.477,46.477 -46.477,122.1 0,168.577 46.477,46.477 122.1,46.476 168.577,0 z"
   id="path4828" />
<g
   id="g4836"
   transform="matrix(-1,0,0,1,512.00039,0)">
	<path
   style="fill:#00c2cb;fill-opacity:1"
   d="m 317.256,328.528 c -35.799,0 -69.42,-13.907 -94.671,-39.158 -25.251,-25.251 -39.158,-58.872 -39.158,-94.671 0,-35.799 13.907,-69.42 39.158,-94.673 25.251,-25.251 58.872,-39.158 94.671,-39.158 35.797,0 69.42,13.907 94.671,39.158 25.251,25.251 39.158,58.874 39.158,94.673 0,35.799 -13.907,69.418 -39.158,94.671 -25.252,25.251 -58.874,39.158 -94.671,39.158 z m 0,-238.293 c -27.955,0 -54.2,10.853 -73.906,30.558 -19.705,19.705 -30.558,45.952 -30.558,73.906 0,27.953 10.853,54.2 30.557,73.904 19.705,19.705 45.951,30.558 73.906,30.558 27.953,0 54.2,-10.853 73.906,-30.558 19.705,-19.704 30.557,-45.951 30.557,-73.904 0,-27.955 -10.851,-54.2 -30.557,-73.906 -19.705,-19.706 -45.952,-30.558 -73.905,-30.558 z"
   id="path4830" />
	<path
   style="fill:#00c2cb;fill-opacity:1"
   d="m 153.219,373.418 c -3.758,0 -7.515,-1.435 -10.383,-4.301 -5.734,-5.734 -5.735,-15.032 0,-20.767 l 35.575,-35.577 c 5.734,-5.733 15.032,-5.733 20.766,0 5.734,5.734 5.735,15.032 0,20.767 l -35.575,35.577 c -2.866,2.867 -6.625,4.301 -10.383,4.301 z"
   id="path4832" />
	<path
   style="fill:#00c2cb;fill-opacity:1"
   d="m 58.011,511.954 c -3.758,0 -7.515,-1.435 -10.383,-4.301 L 4.301,464.326 C 1.548,461.572 0,457.837 0,453.943 0,450.049 1.548,446.315 4.301,443.56 L 119.462,328.398 c 2.753,-2.753 6.489,-4.301 10.383,-4.301 3.894,0 7.63,1.548 10.383,4.301 l 43.327,43.328 c 5.734,5.734 5.734,15.032 0,20.767 L 68.393,507.655 c -2.866,2.864 -6.625,4.299 -10.382,4.299 z m -22.562,-58.011 22.561,22.561 94.395,-94.395 -22.561,-22.561 z"
   id="path4834" />
</g>
<g
   id="g4838">
</g>
<g
   id="g4840">
</g>
<g
   id="g4842">
</g>
<g
   id="g4844">
</g>
<g
   id="g4846">
</g>
<g
   id="g4848">
</g>
<g
   id="g4850">
</g>
<g
   id="g4852">
</g>
<g
   id="g4854">
</g>
<g
   id="g4856">
</g>
<g
   id="g4858">
</g>
<g
   id="g4860">
</g>
<g
   id="g4862">
</g>
<g
   id="g4864">
</g>
<g
   id="g4866">
</g>
</svg>
